<svg width="20" height="20" viewBox="0 0 20 20" fill="none" xmlns="http://www.w3.org/2000/svg">
<path d="M12.2818 11.819V11.9872C12.2818 13.249 11.2513 14.2795 9.98948 14.2795C8.72766 14.2795 7.69716 13.249 7.69716 11.9872V11.819L0.42061 10.4099C0.273396 10.3889 0.126183 10.3468 0 10.2627V16.6139C0 18.1702 1.26183 19.432 2.81809 19.432H17.1819C18.7382 19.432 20 18.1702 20 16.6139V10.2627C19.8738 10.3258 19.7266 10.3678 19.5794 10.4099L12.2818 11.819Z" fill="white"/>
<path d="M17.2029 4.56318H14.6372V3.51165C14.6372 1.8923 13.3123 0.567383 11.693 0.567383H8.28602C6.66667 0.567383 5.34175 1.8923 5.34175 3.51165V4.56318H2.77603C1.2408 4.56318 0 5.80398 0 7.3392V8.51691C0 8.89546 0.273396 9.21092 0.630915 9.29504L7.69716 10.662C7.71819 9.42122 8.72766 8.43279 9.98948 8.43279C11.2303 8.43279 12.2608 9.42122 12.2818 10.662L19.327 9.29504C19.7056 9.21092 19.979 8.89546 19.979 8.51691V7.31817C19.979 5.80398 18.7382 4.56318 17.2029 4.56318ZM7.50789 3.49062C7.50789 3.07001 7.8654 2.73352 8.26498 2.73352H11.693C12.1136 2.73352 12.4501 3.09104 12.4501 3.49062V4.54215H7.50789V3.49062Z" fill="white"/>
<path d="M11.1454 11.9869V10.725C11.1454 10.0941 10.6196 9.56836 9.98871 9.56836C9.35779 9.56836 8.83203 10.0941 8.83203 10.725V11.9869C8.83203 12.6178 9.35779 13.1435 9.98871 13.1435C10.6196 13.1435 11.1454 12.6178 11.1454 11.9869Z" fill="white"/>
</svg>
