<svg width="24" height="24" viewBox="0 0 24 24" fill="none" xmlns="http://www.w3.org/2000/svg">
<path d="M12 23.9882C18.5648 23.9882 24 18.5439 24 11.9941C24 5.43262 18.553 0 11.9883 0C5.4353 0 0 5.43262 0 11.9941C0 18.5439 5.44707 23.9882 12 23.9882ZM12 21.9892C6.44708 21.9892 2.01177 17.5443 2.01177 11.9941C2.01177 6.4439 6.43531 1.99902 11.9883 1.99902C17.5413 1.99902 22.0001 6.4439 22.0001 11.9941C22.0001 17.5443 17.553 21.9892 12 21.9892Z" fill="white"/>
<path d="M6.87121 10.865H9.5771C9.58886 9.25402 10.7771 7.93702 12.2948 7.81943V6.97279C12.2948 6.3966 11.9889 6.0791 11.4007 6.0791H6.87121C6.29474 6.0791 5.98885 6.3966 5.98885 6.97279V10.0066C5.98885 10.5711 6.29474 10.865 6.87121 10.865ZM16.9536 14.1693H18.8007C19.3771 14.1693 19.683 13.8752 19.683 13.2873V9.66558C19.683 9.10115 19.3771 8.80717 18.8007 8.80717H16.9536C16.3654 8.80717 16.0712 9.10115 16.0712 9.66558V13.2873C16.0712 13.8752 16.3654 14.1693 16.9536 14.1693ZM5.22415 15.3569H6.48298C7.07121 15.3569 7.3771 15.0512 7.3771 14.475V13.1932C7.3771 12.6053 7.07121 12.3113 6.48298 12.3113H5.22415C4.64768 12.3113 4.3418 12.5936 4.3418 13.1932V14.475C4.3418 15.0512 4.64768 15.3569 5.22415 15.3569ZM12.4947 13.1344C13.5889 13.1344 14.5418 12.1585 14.5418 10.8767C14.5418 9.61855 13.5889 8.66607 12.4947 8.66607C11.3889 8.66607 10.4359 9.63031 10.4359 10.8767C10.4359 12.1585 11.3889 13.1344 12.4947 13.1344ZM9.04769 17.8968H15.9301C16.483 17.8968 16.8007 17.6264 16.8007 17.2148C16.8007 15.8743 15.1418 14.0517 12.4947 14.0517C9.82416 14.0517 8.18886 15.8743 8.18886 17.2148C8.18886 17.6264 8.50651 17.8968 9.04769 17.8968Z" fill="white"/>
</svg>
