<svg width="38" height="32" viewBox="0 0 38 32" fill="none" xmlns="http://www.w3.org/2000/svg">
<path fill-rule="evenodd" clip-rule="evenodd" d="M19.0007 8.00033C20.7495 8.00033 22.1673 6.80639 22.1673 5.33366C22.1673 3.8609 20.7495 2.66699 19.0007 2.66699C17.2518 2.66699 15.834 3.8609 15.834 5.33366C15.834 6.80639 17.2518 8.00033 19.0007 8.00033Z" fill="black" stroke="black" stroke-width="2" stroke-linecap="round" stroke-linejoin="round"/>
<path fill-rule="evenodd" clip-rule="evenodd" d="M19.0007 18.6663C20.7495 18.6663 22.1673 17.4724 22.1673 15.9997C22.1673 14.5269 20.7495 13.333 19.0007 13.333C17.2518 13.333 15.834 14.5269 15.834 15.9997C15.834 17.4724 17.2518 18.6663 19.0007 18.6663Z" fill="black" stroke="black" stroke-width="2" stroke-linecap="round" stroke-linejoin="round"/>
<path fill-rule="evenodd" clip-rule="evenodd" d="M27.2275 12.0005C28.102 13.2759 30.0387 13.7129 31.5533 12.9765C33.0679 12.2401 33.5868 10.6093 32.7124 9.33379C31.8379 8.05832 29.9012 7.62132 28.3866 8.35772C26.872 9.09412 26.3531 10.725 27.2275 12.0005Z" fill="black" stroke="black" stroke-width="2" stroke-linecap="round" stroke-linejoin="round"/>
<path fill-rule="evenodd" clip-rule="evenodd" d="M27.2275 19.9998C26.3531 21.2753 26.872 22.9061 28.3866 23.6425C29.9012 24.3789 31.8379 23.9419 32.7124 22.6665C33.5868 21.391 33.0679 19.7601 31.5533 19.0237C30.0387 18.2873 28.102 18.7243 27.2275 19.9998Z" fill="black" stroke="black" stroke-width="2" stroke-linecap="round" stroke-linejoin="round"/>
<path fill-rule="evenodd" clip-rule="evenodd" d="M19.0007 24C17.2518 24 15.834 25.1939 15.834 26.6667C15.834 28.1394 17.2518 29.3333 19.0007 29.3333C20.7495 29.3333 22.1673 28.1394 22.1673 26.6667C22.1673 25.1939 20.7495 24 19.0007 24Z" fill="black" stroke="black" stroke-width="2" stroke-linecap="round" stroke-linejoin="round"/>
<path fill-rule="evenodd" clip-rule="evenodd" d="M10.7729 19.9998C9.89839 18.7243 7.96174 18.2873 6.44714 19.0237C4.93255 19.7601 4.41361 21.391 5.28806 22.6665C6.16251 23.9419 8.09917 24.3789 9.61379 23.6425C11.1284 22.9061 11.6473 21.2753 10.7729 19.9998Z" fill="black" stroke="black" stroke-width="2" stroke-linecap="round" stroke-linejoin="round"/>
<path fill-rule="evenodd" clip-rule="evenodd" d="M10.7729 12.0005C11.6473 10.725 11.1284 9.09412 9.61379 8.35772C8.09917 7.62132 6.16251 8.05832 5.28806 9.33379C4.41361 10.6093 4.93255 12.2401 6.44714 12.9765C7.96174 13.7129 9.89839 13.2759 10.7729 12.0005Z" fill="black" stroke="black" stroke-width="2" stroke-linecap="round" stroke-linejoin="round"/>
</svg>
