<svg width="24" height="24" viewBox="0 0 24 24" fill="none" xmlns="http://www.w3.org/2000/svg">
<path fill-rule="evenodd" clip-rule="evenodd" d="M12 6C13.1045 6 14 5.10455 14 4C14 2.89543 13.1045 2 12 2C10.8954 2 10 2.89543 10 4C10 5.10455 10.8954 6 12 6Z" fill="white" stroke="white" stroke-width="2" stroke-linecap="round" stroke-linejoin="round"/>
<path fill-rule="evenodd" clip-rule="evenodd" d="M12 14C13.1045 14 14 13.1045 14 12C14 10.8954 13.1045 10 12 10C10.8954 10 10 10.8954 10 12C10 13.1045 10.8954 14 12 14Z" fill="white" stroke="white" stroke-width="2" stroke-linecap="round" stroke-linejoin="round"/>
<path fill-rule="evenodd" clip-rule="evenodd" d="M17.196 9.00034C17.7483 9.95694 18.9715 10.2847 19.9281 9.73239C20.8847 9.18009 21.2124 7.95694 20.6601 7.00034C20.1078 6.04374 18.8847 5.71599 17.9281 6.26829C16.9715 6.82059 16.6437 8.04374 17.196 9.00034Z" fill="white" stroke="white" stroke-width="2" stroke-linecap="round" stroke-linejoin="round"/>
<path fill-rule="evenodd" clip-rule="evenodd" d="M17.196 15.0003C16.6437 15.9569 16.9715 17.1801 17.9281 17.7324C18.8847 18.2847 20.1078 17.9569 20.6601 17.0003C21.2124 16.0437 20.8847 14.8206 19.9281 14.2683C18.9715 13.716 17.7483 14.0437 17.196 15.0003Z" fill="white" stroke="white" stroke-width="2" stroke-linecap="round" stroke-linejoin="round"/>
<path fill-rule="evenodd" clip-rule="evenodd" d="M12 18C10.8954 18 10 18.8954 10 20C10 21.1045 10.8954 22 12 22C13.1045 22 14 21.1045 14 20C14 18.8954 13.1045 18 12 18Z" fill="white" stroke="white" stroke-width="2" stroke-linecap="round" stroke-linejoin="round"/>
<path fill-rule="evenodd" clip-rule="evenodd" d="M6.80463 15.0003C6.25233 14.0437 5.02918 13.716 4.0726 14.2683C3.11601 14.8206 2.78826 16.0437 3.34055 17.0003C3.89283 17.9569 5.11598 18.2847 6.07258 17.7324C7.02918 17.1801 7.35693 15.9569 6.80463 15.0003Z" fill="white" stroke="white" stroke-width="2" stroke-linecap="round" stroke-linejoin="round"/>
<path fill-rule="evenodd" clip-rule="evenodd" d="M6.80463 9.00034C7.35693 8.04374 7.02918 6.82059 6.07258 6.26829C5.11598 5.71599 3.89283 6.04374 3.34055 7.00034C2.78826 7.95694 3.11601 9.18009 4.0726 9.73239C5.02918 10.2847 6.25233 9.95694 6.80463 9.00034Z" fill="white" stroke="white" stroke-width="2" stroke-linecap="round" stroke-linejoin="round"/>
</svg>
