<svg width="107" height="25" viewBox="0 0 107 25" fill="none" xmlns="http://www.w3.org/2000/svg">
<path d="M22.3055 10.5415H21.5V10.5H12.5V14.5H18.1515C17.327 16.8285 15.1115 18.5 12.5 18.5C9.1865 18.5 6.5 15.8135 6.5 12.5C6.5 9.1865 9.1865 6.5 12.5 6.5C14.0295 6.5 15.421 7.077 16.4805 8.0195L19.309 5.191C17.523 3.5265 15.134 2.5 12.5 2.5C6.9775 2.5 2.5 6.9775 2.5 12.5C2.5 18.0225 6.9775 22.5 12.5 22.5C18.0225 22.5 22.5 18.0225 22.5 12.5C22.5 11.8295 22.431 11.175 22.3055 10.5415Z" fill="#FFC107"/>
<path d="M3.65332 7.8455L6.93882 10.255C7.82782 8.054 9.98082 6.5 12.5003 6.5C14.0298 6.5 15.4213 7.077 16.4808 8.0195L19.3093 5.191C17.5233 3.5265 15.1343 2.5 12.5003 2.5C8.65932 2.5 5.32832 4.6685 3.65332 7.8455Z" fill="#FF3D00"/>
<path d="M12.5002 22.4999C15.0832 22.4999 17.4302 21.5114 19.2047 19.9039L16.1097 17.2849C15.0719 18.074 13.8039 18.5009 12.5002 18.4999C9.89916 18.4999 7.69066 16.8414 6.85866 14.5269L3.59766 17.0394C5.25266 20.2779 8.61366 22.4999 12.5002 22.4999Z" fill="#4CAF50"/>
<path d="M22.3055 10.5415H21.5V10.5H12.5V14.5H18.1515C17.7571 15.6082 17.0467 16.5766 16.108 17.2855L16.1095 17.2845L19.2045 19.9035C18.9855 20.1025 22.5 17.5 22.5 12.5C22.5 11.8295 22.431 11.175 22.3055 10.5415Z" fill="#1976D2"/>
<path d="M50.49 10.216C50.202 9.688 49.806 9.286 49.302 9.01C48.798 8.734 48.21 8.596 47.538 8.596C46.794 8.596 46.134 8.764 45.558 9.1C44.982 9.436 44.532 9.916 44.208 10.54C43.884 11.164 43.722 11.884 43.722 12.7C43.722 13.54 43.884 14.272 44.208 14.896C44.544 15.52 45.006 16 45.594 16.336C46.182 16.672 46.866 16.84 47.646 16.84C48.606 16.84 49.392 16.588 50.004 16.084C50.616 15.568 51.018 14.854 51.21 13.942H46.89V12.016H53.694V14.212C53.526 15.088 53.166 15.898 52.614 16.642C52.062 17.386 51.348 17.986 50.472 18.442C49.608 18.886 48.636 19.108 47.556 19.108C46.344 19.108 45.246 18.838 44.262 18.298C43.29 17.746 42.522 16.984 41.958 16.012C41.406 15.04 41.13 13.936 41.13 12.7C41.13 11.464 41.406 10.36 41.958 9.388C42.522 8.404 43.29 7.642 44.262 7.102C45.246 6.55 46.338 6.274 47.538 6.274C48.954 6.274 50.184 6.622 51.228 7.318C52.272 8.002 52.992 8.968 53.388 10.216H50.49ZM59.9864 19.162C59.0264 19.162 58.1624 18.952 57.3944 18.532C56.6264 18.1 56.0204 17.494 55.5764 16.714C55.1444 15.934 54.9284 15.034 54.9284 14.014C54.9284 12.994 55.1504 12.094 55.5944 11.314C56.0504 10.534 56.6684 9.934 57.4484 9.514C58.2284 9.082 59.0984 8.866 60.0584 8.866C61.0184 8.866 61.8884 9.082 62.6684 9.514C63.4484 9.934 64.0604 10.534 64.5044 11.314C64.9604 12.094 65.1884 12.994 65.1884 14.014C65.1884 15.034 64.9544 15.934 64.4864 16.714C64.0304 17.494 63.4064 18.1 62.6144 18.532C61.8344 18.952 60.9584 19.162 59.9864 19.162ZM59.9864 16.966C60.4424 16.966 60.8684 16.858 61.2644 16.642C61.6724 16.414 61.9964 16.078 62.2364 15.634C62.4764 15.19 62.5964 14.65 62.5964 14.014C62.5964 13.066 62.3444 12.34 61.8404 11.836C61.3484 11.32 60.7424 11.062 60.0224 11.062C59.3024 11.062 58.6964 11.32 58.2044 11.836C57.7244 12.34 57.4844 13.066 57.4844 14.014C57.4844 14.962 57.7184 15.694 58.1864 16.21C58.6664 16.714 59.2664 16.966 59.9864 16.966ZM71.4649 19.162C70.5049 19.162 69.6409 18.952 68.8729 18.532C68.1049 18.1 67.4989 17.494 67.0549 16.714C66.6229 15.934 66.4069 15.034 66.4069 14.014C66.4069 12.994 66.6289 12.094 67.0729 11.314C67.5289 10.534 68.1469 9.934 68.9269 9.514C69.7069 9.082 70.5769 8.866 71.5369 8.866C72.4969 8.866 73.3669 9.082 74.1469 9.514C74.9269 9.934 75.5389 10.534 75.9829 11.314C76.4389 12.094 76.6669 12.994 76.6669 14.014C76.6669 15.034 76.4329 15.934 75.9649 16.714C75.5089 17.494 74.8849 18.1 74.0929 18.532C73.3129 18.952 72.4369 19.162 71.4649 19.162ZM71.4649 16.966C71.9209 16.966 72.3469 16.858 72.7429 16.642C73.1509 16.414 73.4749 16.078 73.7149 15.634C73.9549 15.19 74.0749 14.65 74.0749 14.014C74.0749 13.066 73.8229 12.34 73.3189 11.836C72.8269 11.32 72.2209 11.062 71.5009 11.062C70.7809 11.062 70.1749 11.32 69.6829 11.836C69.2029 12.34 68.9629 13.066 68.9629 14.014C68.9629 14.962 69.1969 15.694 69.6649 16.21C70.1449 16.714 70.7449 16.966 71.4649 16.966ZM82.4214 8.866C83.1654 8.866 83.8194 9.016 84.3834 9.316C84.9474 9.604 85.3914 9.982 85.7154 10.45V9.028H88.2534V19.072C88.2534 19.996 88.0674 20.818 87.6954 21.538C87.3234 22.27 86.7654 22.846 86.0214 23.266C85.2774 23.698 84.3774 23.914 83.3214 23.914C81.9054 23.914 80.7414 23.584 79.8294 22.924C78.9294 22.264 78.4194 21.364 78.2994 20.224H80.8014C80.9334 20.68 81.2154 21.04 81.6474 21.304C82.0914 21.58 82.6254 21.718 83.2494 21.718C83.9814 21.718 84.5754 21.496 85.0314 21.052C85.4874 20.62 85.7154 19.96 85.7154 19.072V17.524C85.3914 17.992 84.9414 18.382 84.3654 18.694C83.8014 19.006 83.1534 19.162 82.4214 19.162C81.5814 19.162 80.8134 18.946 80.1174 18.514C79.4214 18.082 78.8694 17.476 78.4614 16.696C78.0654 15.904 77.8674 14.998 77.8674 13.978C77.8674 12.97 78.0654 12.076 78.4614 11.296C78.8694 10.516 79.4154 9.916 80.0994 9.496C80.7954 9.076 81.5694 8.866 82.4214 8.866ZM85.7154 14.014C85.7154 13.402 85.5954 12.88 85.3554 12.448C85.1154 12.004 84.7914 11.668 84.3834 11.44C83.9754 11.2 83.5374 11.08 83.0694 11.08C82.6014 11.08 82.1694 11.194 81.7734 11.422C81.3774 11.65 81.0534 11.986 80.8014 12.43C80.5614 12.862 80.4414 13.378 80.4414 13.978C80.4414 14.578 80.5614 15.106 80.8014 15.562C81.0534 16.006 81.3774 16.348 81.7734 16.588C82.1814 16.828 82.6134 16.948 83.0694 16.948C83.5374 16.948 83.9754 16.834 84.3834 16.606C84.7914 16.366 85.1154 16.03 85.3554 15.598C85.5954 15.154 85.7154 14.626 85.7154 14.014ZM93.2347 5.68V19H90.7147V5.68H93.2347ZM104.994 13.798C104.994 14.158 104.97 14.482 104.922 14.77H97.6324C97.6924 15.49 97.9444 16.054 98.3884 16.462C98.8324 16.87 99.3784 17.074 100.026 17.074C100.962 17.074 101.628 16.672 102.024 15.868H104.742C104.454 16.828 103.902 17.62 103.086 18.244C102.27 18.856 101.268 19.162 100.08 19.162C99.1204 19.162 98.2564 18.952 97.4884 18.532C96.7324 18.1 96.1384 17.494 95.7064 16.714C95.2864 15.934 95.0764 15.034 95.0764 14.014C95.0764 12.982 95.2864 12.076 95.7064 11.296C96.1264 10.516 96.7144 9.916 97.4704 9.496C98.2264 9.076 99.0964 8.866 100.08 8.866C101.028 8.866 101.874 9.07 102.618 9.478C103.374 9.886 103.956 10.468 104.364 11.224C104.784 11.968 104.994 12.826 104.994 13.798ZM102.384 13.078C102.372 12.43 102.138 11.914 101.682 11.53C101.226 11.134 100.668 10.936 100.008 10.936C99.3844 10.936 98.8564 11.128 98.4244 11.512C98.0044 11.884 97.7464 12.406 97.6504 13.078H102.384Z" fill="#FF3D00"/>
</svg>
