<svg width="20" height="26" viewBox="0 0 20 26" fill="none" xmlns="http://www.w3.org/2000/svg">
<path d="M10 0C7.90118 0 5.85555 0.660373 4.1529 1.88758C2.45024 3.11478 1.17687 4.8466 0.513167 6.83772C-0.15054 8.82884 -0.170937 10.9783 0.454865 12.9817C1.08067 14.985 2.32094 16.7407 4 18V25C3.99984 25.1634 4.03971 25.3243 4.11613 25.4687C4.19255 25.6131 4.30318 25.7366 4.43835 25.8283C4.57352 25.9201 4.72912 25.9773 4.89153 25.9951C5.05394 26.0128 5.21822 25.9904 5.37 25.93L10 24.08L14.63 25.93C14.7818 25.9904 14.9461 26.0128 15.1085 25.9951C15.2709 25.9773 15.4265 25.9201 15.5616 25.8283C15.6968 25.7366 15.8075 25.6131 15.8839 25.4687C15.9603 25.3243 16.0002 25.1634 16 25V18C17.6791 16.7407 18.9193 14.985 19.5451 12.9817C20.1709 10.9783 20.1505 8.82884 19.4868 6.83772C18.8231 4.8466 17.5498 3.11478 15.8471 1.88758C14.1444 0.660373 12.0988 0 10 0ZM14 23.52L10.37 22.07C10.1324 21.9754 9.86759 21.9754 9.63 22.07L6 23.52V19.17C6.32597 19.3153 6.65983 19.4421 7 19.55L7.35 19.64C7.63 19.72 7.92 19.78 8.21 19.83L8.78 19.92C9.03 19.92 9.27 19.92 9.52 19.97C9.77 20.02 9.82 19.97 9.98 19.97C10.14 19.97 10.28 19.97 10.44 19.97C10.6 19.97 10.94 19.97 11.18 19.92L11.75 19.83C12.04 19.78 12.32 19.71 12.61 19.64L12.96 19.55C13.3002 19.4421 13.634 19.3152 13.96 19.17L14 23.52ZM14.44 16.65C13.4533 17.2973 12.3375 17.722 11.1702 17.8947C10.0028 18.0674 8.81184 17.9839 7.68 17.65C6.92318 17.4272 6.20489 17.0899 5.55 16.65C4.12306 15.6964 3.04062 14.3092 2.46251 12.6933C1.88441 11.0773 1.8413 9.31833 2.33955 7.67601C2.83781 6.03369 3.851 4.59514 5.22951 3.5728C6.60802 2.55046 8.27876 1.99854 9.995 1.99854C11.7112 1.99854 13.382 2.55046 14.7605 3.5728C16.139 4.59514 17.1522 6.03369 17.6504 7.67601C18.1487 9.31833 18.1056 11.0773 17.5275 12.6933C16.9494 14.3092 15.8669 15.6964 14.44 16.65ZM12.18 7L11.43 4.68C11.3314 4.3799 11.1405 4.1186 10.8846 3.93335C10.6287 3.74811 10.3209 3.64838 10.005 3.64838C9.6891 3.64838 9.38127 3.74811 9.12539 3.93335C8.86951 4.1186 8.67864 4.3799 8.58 4.68L7.82 7H5.38C5.0643 7.00137 4.75707 7.10231 4.50208 7.28845C4.24709 7.47459 4.05733 7.73644 3.95982 8.03671C3.86232 8.33698 3.86204 8.66037 3.95903 8.9608C4.05602 9.26124 4.24533 9.52342 4.5 9.71L6.5 11.14L5.75 13.46C5.66519 13.7531 5.67178 14.0651 5.76888 14.3543C5.86598 14.6436 6.04898 14.8963 6.29346 15.0789C6.53794 15.2614 6.83227 15.365 7.13718 15.376C7.44209 15.3869 7.74308 15.3046 8 15.14L10 13.71L12 15.14C12.2564 15.3275 12.5657 15.4287 12.8834 15.4291C13.201 15.4294 13.5106 15.329 13.7675 15.1422C14.0244 14.9553 14.2153 14.6918 14.3128 14.3895C14.4103 14.0872 14.4093 13.7617 14.31 13.46L13.56 11.14L15.56 9.71C15.8192 9.52053 16.0108 9.25287 16.1066 8.94639C16.2024 8.63991 16.1973 8.31079 16.092 8.00743C15.9868 7.70407 15.787 7.44248 15.522 7.26114C15.2571 7.07979 14.9409 6.98826 14.62 7H12.18ZM12.06 9.74C11.801 9.92465 11.6079 10.1873 11.5089 10.4896C11.41 10.7919 11.4104 11.1179 11.51 11.42L11.9 12.62L10.9 11.88C10.644 11.6946 10.3361 11.5947 10.02 11.5947C9.70394 11.5947 9.39596 11.6946 9.14 11.88L8.14 12.62L8.53 11.42C8.63068 11.119 8.63259 10.7937 8.53545 10.4915C8.43832 10.1893 8.24722 9.92599 7.99 9.74L6.99 9H8.25C8.56288 9.00329 8.86895 8.90865 9.12537 8.72933C9.38179 8.55002 9.57572 8.29501 9.68 8L10 6.76L10.39 7.96C10.4943 8.25501 10.6882 8.51002 10.9446 8.68933C11.201 8.86865 11.5071 8.96329 11.82 8.96H13.08L12.06 9.74Z" fill="white"/>
</svg>
