<svg width="46" height="44" viewBox="0 0 46 44" fill="none" xmlns="http://www.w3.org/2000/svg">
<rect x="0.5" width="45" height="44" rx="10" fill="#FFA000"/>
<path d="M20.99 32.78C20.39 32.78 19.82 32.48 19.43 31.95L18.23 30.35C18.23 30.36 18.18 30.33 18.16 30.33H17.79C14.37 30.33 12.25 29.4 12.25 24.79V20.79C12.25 16.58 14.82 15.48 16.98 15.29C17.22 15.26 17.5 15.25 17.79 15.25H24.19C27.81 15.25 29.73 17.17 29.73 20.79V24.79C29.73 25.08 29.72 25.36 29.68 25.63C29.5 27.76 28.4 30.33 24.19 30.33H23.79L22.55 31.95C22.16 32.48 21.59 32.78 20.99 32.78ZM17.79 16.75C17.56 16.75 17.34 16.76 17.13 16.78C14.81 16.98 13.75 18.25 13.75 20.79V24.79C13.75 28.22 14.81 28.83 17.79 28.83H18.19C18.64 28.83 19.15 29.08 19.43 29.44L20.63 31.05C20.85 31.35 21.13 31.35 21.35 31.05L22.55 29.45C22.84 29.06 23.3 28.83 23.79 28.83H24.19C26.73 28.83 28 27.76 28.19 25.48C28.22 25.24 28.23 25.02 28.23 24.79V20.79C28.23 18 26.98 16.75 24.19 16.75H17.79Z" fill="white"/>
<path d="M20.9902 24.1904C20.4302 24.1904 19.9902 23.7404 19.9902 23.1904C19.9902 22.6404 20.4402 22.1904 20.9902 22.1904C21.5402 22.1904 21.9902 22.6404 21.9902 23.1904C21.9902 23.7404 21.5502 24.1904 20.9902 24.1904Z" fill="white"/>
<path d="M24.1895 24.1904C23.6295 24.1904 23.1895 23.7404 23.1895 23.1904C23.1895 22.6404 23.6395 22.1904 24.1895 22.1904C24.7395 22.1904 25.1895 22.6404 25.1895 23.1904C25.1895 23.7404 24.7395 24.1904 24.1895 24.1904Z" fill="white"/>
<path d="M17.8008 24.1904C17.2408 24.1904 16.8008 23.7404 16.8008 23.1904C16.8008 22.6404 17.2508 22.1904 17.8008 22.1904C18.3508 22.1904 18.8008 22.6404 18.8008 23.1904C18.8008 23.7404 18.3508 24.1904 17.8008 24.1904Z" fill="white"/>
<path d="M28.9396 26.29C28.7396 26.29 28.5396 26.21 28.3996 26.06C28.2396 25.9 28.1697 25.67 28.1997 25.45C28.2297 25.24 28.2396 25.02 28.2396 24.79V20.79C28.2396 18 26.9897 16.75 24.1997 16.75H17.7996C17.5696 16.75 17.3497 16.76 17.1397 16.78C16.9197 16.81 16.6896 16.73 16.5296 16.58C16.3696 16.42 16.2796 16.2 16.2996 15.98C16.4796 13.82 17.5896 11.25 21.7996 11.25H28.1997C31.8197 11.25 33.7396 13.17 33.7396 16.79V20.79C33.7396 25 31.1697 26.1 29.0097 26.29C28.9797 26.29 28.9596 26.29 28.9396 26.29ZM17.9197 15.25H24.1896C27.8096 15.25 29.7297 17.17 29.7297 20.79V24.66C31.4297 24.24 32.2297 22.99 32.2297 20.79V16.79C32.2297 14 30.9796 12.75 28.1896 12.75H21.7897C19.5897 12.75 18.3497 13.55 17.9197 15.25Z" fill="white"/>
</svg>
