<svg width="46" height="44" viewBox="0 0 46 44" fill="none" xmlns="http://www.w3.org/2000/svg">
<rect x="0.5" width="45" height="44" rx="22" fill="#F6E6CA"/>
<path opacity="0.4" d="M33.705 26.1316L32.2466 23.7107C31.9404 23.1712 31.6633 22.1503 31.6633 21.5524V17.8628C31.6633 13.1087 27.7987 9.22949 23.03 9.22949C18.2612 9.22949 14.3966 13.1087 14.3966 17.8628V21.5524C14.3966 22.1503 14.1196 23.1712 13.8133 23.6962L12.3404 26.1316C11.7571 27.1087 11.6258 28.1878 11.9904 29.1795C12.3404 30.1566 13.1716 30.9149 14.2508 31.2795C17.08 32.242 20.055 32.7087 23.03 32.7087C26.005 32.7087 28.98 32.242 31.8091 31.2941C32.83 30.9587 33.6175 30.1857 33.9966 29.1795C34.3758 28.1732 34.2737 27.0649 33.705 26.1316Z" fill="#292D32"/>
<path d="M26.2806 9.84199C25.2743 9.44824 24.1806 9.22949 23.0285 9.22949C21.891 9.22949 20.7973 9.43366 19.791 9.84199C20.4181 8.66074 21.6577 7.91699 23.0285 7.91699C24.4139 7.91699 25.6389 8.66074 26.2806 9.84199Z" fill="#292D32"/>
<path d="M27.1263 34.1816C26.5138 35.8732 24.8951 37.0837 22.9992 37.0837C21.8471 37.0837 20.7096 36.617 19.9076 35.7857C19.4409 35.3482 19.0909 34.7649 18.8867 34.167C19.0763 34.1962 19.2659 34.2107 19.4701 34.2399C19.8055 34.2837 20.1555 34.3274 20.5055 34.3566C21.3367 34.4295 22.1826 34.4732 23.0284 34.4732C23.8596 34.4732 24.6909 34.4295 25.5076 34.3566C25.8138 34.3274 26.1201 34.3128 26.4117 34.2691C26.6451 34.2399 26.8784 34.2107 27.1263 34.1816Z" fill="#292D32"/>
<circle cx="39.5" cy="8" r="6" fill="#FFA000"/>
</svg>
