<svg width="200" height="118" viewBox="0 0 200 118" fill="none" xmlns="http://www.w3.org/2000/svg">
<path d="M166.887 10.316L133.125 44.3028L120.045 57.4789C119.792 57.7246 119.476 57.8429 119.15 57.8429C118.825 57.8429 118.5 57.7246 118.256 57.4789L106.586 45.7223C106.206 45.3401 106.116 44.7669 106.324 44.3028C106.387 44.1663 106.468 44.0389 106.586 43.9297L141.749 8.52343C141.984 8.28684 142.309 8.15034 142.644 8.15034H165.992C166.688 8.15034 167.013 8.57802 167.158 8.9329C167.303 9.29689 167.375 9.82466 166.887 10.316ZM93.4157 45.7223L81.737 57.4789C81.4929 57.7246 81.1675 57.8429 80.8421 57.8429C80.5257 57.8429 80.2003 57.7246 79.9562 57.4789L40.7439 18.0051L33.1147 10.316C32.6176 9.82466 32.6899 9.29689 32.8345 8.9329C32.9882 8.57802 33.3046 8.15034 34.0006 8.15034H57.358C57.6925 8.15034 58.0089 8.28684 58.2439 8.52343L93.4157 43.9297C93.5242 44.0389 93.6146 44.1663 93.6688 44.3028C93.8767 44.7669 93.7953 45.3401 93.4157 45.7223ZM174.597 5.83906C173.151 2.31754 169.77 0.0517578 165.992 0.0517578H142.644C140.149 0.0517578 137.817 1.02541 136.054 2.79072L131.209 7.67717L100.891 38.197C100.566 38.5246 100.267 38.8704 99.9963 39.2344C99.7341 38.8704 99.4358 38.5246 99.1104 38.197L63.9386 2.79072C62.185 1.02541 59.8438 0.0517578 57.358 0.0517578H34.0006C30.2222 0.0517578 26.8505 2.31754 25.4042 5.83906C23.9579 9.35148 24.7444 13.3644 27.42 16.0487L40.7439 29.4706L55.4869 44.3028L74.2615 63.2116C77.8953 66.8605 83.7979 66.8605 87.4317 63.2116L99.1104 51.455C99.4358 51.1274 99.7341 50.7726 99.9963 50.4086C100.267 50.7726 100.566 51.1274 100.891 51.455L112.57 63.2116C116.195 66.8605 122.106 66.8605 125.731 63.2116L172.582 16.0487C175.248 13.3644 176.044 9.35148 174.597 5.83906Z" fill="white"/>
<mask id="mask0_4738_5091" style="mask-type:luminance" maskUnits="userSpaceOnUse" x="77" y="0" width="45" height="22">
<path d="M77.7656 0.0517578H121.791V21.8108H77.7656V0.0517578Z" fill="white"/>
</mask>
<g mask="url(#mask0_4738_5091)">
<path d="M119.691 0.0605469C120.469 0.0605469 120.859 0.992818 120.306 1.53589L100.72 21.1317C100.376 21.4756 99.8237 21.4756 99.4797 21.1317L79.8839 1.53589C79.3408 0.992818 79.73 0.0605469 80.4994 0.0605469H119.691Z" fill="white"/>
</g>
<path d="M5.4 109.948L0.275 91.3232H3.4L7.55 107.448H6.775L11.075 91.3232H14.15L18.45 107.448H17.65L21.825 91.3232H24.925L19.825 109.948H16.5L12.175 94.0732H13.05L8.7 109.948H5.4ZM28.8453 109.948V96.4232H31.6703V109.948H28.8453ZM28.8453 94.5732V91.3232H31.6703V94.5732H28.8453ZM41.9732 110.248C40.5899 110.248 39.3732 109.907 38.3232 109.223C37.2899 108.54 36.5649 107.623 36.1482 106.473L38.3232 105.448C38.6899 106.215 39.1899 106.823 39.8232 107.273C40.4732 107.723 41.1899 107.948 41.9732 107.948C42.6399 107.948 43.1816 107.798 43.5982 107.498C44.0149 107.198 44.2232 106.79 44.2232 106.273C44.2232 105.94 44.1316 105.673 43.9482 105.473C43.7649 105.257 43.5316 105.082 43.2482 104.948C42.9816 104.815 42.7066 104.715 42.4232 104.648L40.2982 104.048C39.1316 103.715 38.2566 103.215 37.6732 102.548C37.1066 101.865 36.8232 101.073 36.8232 100.173C36.8232 99.3566 37.0316 98.6482 37.4482 98.0482C37.8649 97.4316 38.4399 96.9566 39.1732 96.6232C39.9066 96.2899 40.7316 96.1232 41.6482 96.1232C42.8816 96.1232 43.9816 96.4316 44.9482 97.0482C45.9149 97.6482 46.5982 98.4899 46.9982 99.5732L44.8232 100.598C44.5566 99.9482 44.1316 99.4316 43.5482 99.0482C42.9816 98.6649 42.3399 98.4732 41.6232 98.4732C41.0066 98.4732 40.5149 98.6232 40.1482 98.9232C39.7816 99.2066 39.5982 99.5816 39.5982 100.048C39.5982 100.365 39.6816 100.632 39.8482 100.848C40.0149 101.048 40.2316 101.215 40.4982 101.348C40.7649 101.465 41.0399 101.565 41.3232 101.648L43.5232 102.298C44.6399 102.615 45.4982 103.115 46.0982 103.798C46.6982 104.465 46.9982 105.265 46.9982 106.198C46.9982 106.998 46.7816 107.707 46.3482 108.323C45.9316 108.923 45.3482 109.398 44.5982 109.748C43.8482 110.082 42.9732 110.248 41.9732 110.248ZM58.0162 110.248C56.7162 110.248 55.5495 109.94 54.5162 109.323C53.4995 108.69 52.6912 107.84 52.0912 106.773C51.5079 105.707 51.2162 104.507 51.2162 103.173C51.2162 101.84 51.5162 100.64 52.1162 99.5732C52.7162 98.5066 53.5245 97.6649 54.5412 97.0482C55.5579 96.4316 56.7079 96.1232 57.9912 96.1232C59.0745 96.1232 60.0329 96.3399 60.8662 96.7732C61.6995 97.2066 62.3579 97.8066 62.8412 98.5732L62.4162 99.2232V91.0232H65.2162V109.948H62.5412V107.198L62.8662 107.723C62.3995 108.54 61.7329 109.165 60.8662 109.598C59.9995 110.032 59.0495 110.248 58.0162 110.248ZM58.2912 107.623C59.0745 107.623 59.7745 107.432 60.3912 107.048C61.0245 106.665 61.5162 106.14 61.8662 105.473C62.2329 104.79 62.4162 104.023 62.4162 103.173C62.4162 102.323 62.2329 101.565 61.8662 100.898C61.5162 100.232 61.0245 99.7066 60.3912 99.3232C59.7745 98.9399 59.0745 98.7482 58.2912 98.7482C57.5079 98.7482 56.7995 98.9399 56.1662 99.3232C55.5329 99.7066 55.0412 100.232 54.6912 100.898C54.3412 101.565 54.1662 102.323 54.1662 103.173C54.1662 104.023 54.3412 104.79 54.6912 105.473C55.0412 106.14 55.5245 106.665 56.1412 107.048C56.7745 107.432 57.4912 107.623 58.2912 107.623ZM77.0393 110.248C75.7393 110.248 74.5476 109.94 73.4643 109.323C72.3976 108.707 71.5476 107.865 70.9143 106.798C70.2809 105.732 69.9643 104.523 69.9643 103.173C69.9643 101.807 70.2809 100.598 70.9143 99.5482C71.5476 98.4816 72.3976 97.6482 73.4643 97.0482C74.5309 96.4316 75.7226 96.1232 77.0393 96.1232C78.3726 96.1232 79.5643 96.4316 80.6143 97.0482C81.6809 97.6482 82.5226 98.4816 83.1393 99.5482C83.7726 100.598 84.0893 101.807 84.0893 103.173C84.0893 104.54 83.7726 105.757 83.1393 106.823C82.5059 107.89 81.6559 108.732 80.5893 109.348C79.5226 109.948 78.3393 110.248 77.0393 110.248ZM77.0393 107.623C77.8393 107.623 78.5476 107.432 79.1643 107.048C79.7809 106.665 80.2643 106.14 80.6143 105.473C80.9809 104.79 81.1643 104.023 81.1643 103.173C81.1643 102.323 80.9809 101.565 80.6143 100.898C80.2643 100.232 79.7809 99.7066 79.1643 99.3232C78.5476 98.9399 77.8393 98.7482 77.0393 98.7482C76.2559 98.7482 75.5476 98.9399 74.9143 99.3232C74.2976 99.7066 73.8059 100.232 73.4393 100.898C73.0893 101.565 72.9143 102.323 72.9143 103.173C72.9143 104.023 73.0893 104.79 73.4393 105.473C73.8059 106.14 74.2976 106.665 74.9143 107.048C75.5476 107.432 76.2559 107.623 77.0393 107.623ZM88.8473 109.948V96.4232H91.5473V99.3482L91.1973 98.8982C91.4806 97.9816 91.9973 97.2899 92.7473 96.8232C93.4973 96.3566 94.3556 96.1232 95.3223 96.1232C96.4056 96.1232 97.3639 96.4149 98.1973 96.9982C99.0473 97.5649 99.6139 98.3232 99.8973 99.2732L99.0973 99.3482C99.4973 98.2649 100.106 97.4566 100.922 96.9232C101.756 96.3899 102.706 96.1232 103.772 96.1232C104.706 96.1232 105.547 96.3399 106.297 96.7732C107.064 97.2066 107.672 97.8066 108.122 98.5732C108.572 99.3399 108.797 100.215 108.797 101.198V109.948H105.972V101.973C105.972 101.29 105.847 100.715 105.597 100.248C105.364 99.7649 105.031 99.3982 104.597 99.1482C104.181 98.8816 103.689 98.7482 103.122 98.7482C102.556 98.7482 102.056 98.8816 101.622 99.1482C101.189 99.3982 100.847 99.7649 100.597 100.248C100.347 100.732 100.222 101.307 100.222 101.973V109.948H97.4223V101.973C97.4223 101.29 97.2973 100.715 97.0473 100.248C96.8139 99.7649 96.4806 99.3982 96.0473 99.1482C95.6306 98.8816 95.1306 98.7482 94.5473 98.7482C93.9806 98.7482 93.4806 98.8816 93.0473 99.1482C92.6139 99.3982 92.2723 99.7649 92.0223 100.248C91.7889 100.732 91.6723 101.307 91.6723 101.973V109.948H88.8473ZM123.941 109.948L118.816 91.3232H121.941L126.091 107.448H125.316L129.616 91.3232H132.691L136.991 107.448H136.191L140.366 91.3232H143.466L138.366 109.948H135.041L130.716 94.0732H131.591L127.241 109.948H123.941ZM153.032 110.248C151.732 110.248 150.541 109.94 149.457 109.323C148.391 108.707 147.541 107.865 146.907 106.798C146.274 105.732 145.957 104.523 145.957 103.173C145.957 101.807 146.274 100.598 146.907 99.5482C147.541 98.4816 148.391 97.6482 149.457 97.0482C150.524 96.4316 151.716 96.1232 153.032 96.1232C154.366 96.1232 155.557 96.4316 156.607 97.0482C157.674 97.6482 158.516 98.4816 159.132 99.5482C159.766 100.598 160.082 101.807 160.082 103.173C160.082 104.54 159.766 105.757 159.132 106.823C158.499 107.89 157.649 108.732 156.582 109.348C155.516 109.948 154.332 110.248 153.032 110.248ZM153.032 107.623C153.832 107.623 154.541 107.432 155.157 107.048C155.774 106.665 156.257 106.14 156.607 105.473C156.974 104.79 157.157 104.023 157.157 103.173C157.157 102.323 156.974 101.565 156.607 100.898C156.257 100.232 155.774 99.7066 155.157 99.3232C154.541 98.9399 153.832 98.7482 153.032 98.7482C152.249 98.7482 151.541 98.9399 150.907 99.3232C150.291 99.7066 149.799 100.232 149.432 100.898C149.082 101.565 148.907 102.323 148.907 103.173C148.907 104.023 149.082 104.79 149.432 105.473C149.799 106.14 150.291 106.665 150.907 107.048C151.541 107.432 152.249 107.623 153.032 107.623ZM164.84 109.948V96.4232H167.54V99.1482L167.29 98.7482C167.59 97.8649 168.074 97.2316 168.74 96.8482C169.407 96.4482 170.207 96.2482 171.14 96.2482H171.965V98.8232H170.79C169.857 98.8232 169.099 99.1149 168.515 99.6982C167.949 100.265 167.665 101.082 167.665 102.148V109.948H164.84ZM175.898 109.948V91.0232H178.723V103.698L177.623 103.423L184.398 96.4232H187.923L182.823 101.848L188.148 109.948H184.898L180.148 102.773L181.823 102.548L177.823 106.798L178.723 104.923V109.948H175.898Z" fill="white"/>
</svg>
