<svg width="152" height="66" viewBox="0 0 152 66" fill="none" xmlns="http://www.w3.org/2000/svg">
<path d="M142.887 10.316L109.125 44.3028L96.0454 57.4789C95.7923 57.7246 95.4759 57.8429 95.1505 57.8429C94.8251 57.8429 94.4997 57.7246 94.2556 57.4789L82.5859 45.7223C82.2063 45.3401 82.1159 44.7669 82.3238 44.3028C82.387 44.1663 82.4684 44.0389 82.5859 43.9297L117.749 8.52343C117.984 8.28684 118.309 8.15034 118.644 8.15034H141.992C142.688 8.15034 143.013 8.57802 143.158 8.9329C143.303 9.29689 143.375 9.82466 142.887 10.316ZM69.4157 45.7223L57.737 57.4789C57.4929 57.7246 57.1675 57.8429 56.8421 57.8429C56.5257 57.8429 56.2003 57.7246 55.9562 57.4789L16.7439 18.0051L9.11473 10.316C8.61757 9.82466 8.68988 9.29689 8.83451 8.9329C8.98818 8.57802 9.30455 8.15034 10.0006 8.15034H33.358C33.6925 8.15034 34.0089 8.28684 34.2439 8.52343L69.4157 43.9297C69.5242 44.0389 69.6146 44.1663 69.6688 44.3028C69.8767 44.7669 69.7953 45.3401 69.4157 45.7223ZM150.597 5.83906C149.151 2.31754 145.77 0.0517578 141.992 0.0517578H118.644C116.149 0.0517578 113.817 1.02541 112.054 2.79072L107.209 7.67717L76.8912 38.197C76.5658 38.5246 76.2675 38.8704 75.9963 39.2344C75.7341 38.8704 75.4358 38.5246 75.1104 38.197L39.9386 2.79072C38.185 1.02541 35.8438 0.0517578 33.358 0.0517578H10.0006C6.22216 0.0517578 2.85051 2.31754 1.40423 5.83906C-0.042053 9.35148 0.744366 13.3644 3.41999 16.0487L16.7439 29.4706L31.4869 44.3028L50.2615 63.2116C53.8953 66.8605 59.7979 66.8605 63.4317 63.2116L75.1104 51.455C75.4358 51.1274 75.7341 50.7726 75.9963 50.4086C76.2675 50.7726 76.5658 51.1274 76.8912 51.455L88.5699 63.2116C92.1947 66.8605 98.1063 66.8605 101.731 63.2116L148.582 16.0487C151.248 13.3644 152.044 9.35148 150.597 5.83906Z" fill="white"/>
<mask id="mask0_4738_5090" style="mask-type:luminance" maskUnits="userSpaceOnUse" x="53" y="0" width="45" height="22">
<path d="M53.7656 0.0517578H97.7905V21.8108H53.7656V0.0517578Z" fill="white"/>
</mask>
<g mask="url(#mask0_4738_5090)">
<path d="M95.691 0.0605469C96.4694 0.0605469 96.8586 0.992818 96.3065 1.53589L76.7197 21.1317C76.3758 21.4756 75.8237 21.4756 75.4797 21.1317L55.8839 1.53589C55.3408 0.992818 55.73 0.0605469 56.4994 0.0605469H95.691Z" fill="white"/>
</g>
</svg>
